<svg width="41" height="44" viewBox="0 0 41 44" fill="none" xmlns="http://www.w3.org/2000/svg">
<g clip-path="url(#clip0)">
<path d="M12.5 24C19.1274 24 24.5 18.6274 24.5 12C24.5 5.37258 19.1274 0 12.5 0C5.87258 0 0.5 5.37258 0.5 12C0.5 18.6274 5.87258 24 12.5 24Z" fill="#F3BA2F"/>
<path d="M9.587 10.803L12.5 7.89L15.4145 10.8045L17.1095 9.1095L12.5 4.5L7.892 9.108L9.587 10.803ZM5 12L6.695 10.305L8.39 12L6.695 13.695L5 12ZM9.587 13.197L12.5 16.11L15.4145 13.1955L17.1095 14.8898L12.5 19.5L7.892 14.892L7.88975 14.8898L9.587 13.197ZM16.61 12L18.305 10.305L20 12L18.305 13.695L16.61 12ZM14.219 11.9985H14.2205V12L12.5 13.7205L10.7817 12.003L10.7787 12L10.7817 11.9977L11.0825 11.6962L11.2288 11.55L12.5 10.2795L14.2197 11.9992L14.219 11.9985Z" fill="white"/>
</g>
<g clip-path="url(#clip1)">
<circle cx="24.5" cy="28" r="16" fill="#FCFCFC"/>
<g clip-path="url(#clip2)">
<path fill-rule="evenodd" cilp-rule="evenodd" d="M32.2114 40.0437C36.3192 37.4858 39.0535 33 39.0535 27.8841C39.0535 19.9205 32.4382 13.469 24.273 13.469C20.077 13.469 16.2842 15.1701 13.6003 17.9044H25.4071C30.4221 17.9044 34.5047 21.8862 34.5047 26.7753C34.5047 30.8201 31.7074 34.2474 27.8894 35.3059L32.2114 40.0437ZM18.2878 31.2863H25.4323C27.8769 31.2863 29.8552 29.2576 29.8804 26.7753C29.8804 24.2803 27.8895 22.2516 25.4449 22.2516H11.0424C10.3242 23.9905 9.93359 25.8932 9.93359 27.8967C9.93359 36.0115 16.3725 42.589 24.3235 42.589C25.5079 42.589 26.6672 42.4378 27.7635 42.1606L18.2878 31.2863Z" fill="#5F47EE"/>
</g>
</g>
<defs>
<clip-path id="clip0">
<rect width="24" height="24" fill="white" transform="translate(0.5)"/>
</clip-path>
<clip-path id="clip1">
<rect width="32" height="32" fill="white" transform="translate(8.5 12)"/>
</clip-path>
<clip-path id="clip2">
<rect width="29.12" height="29.12" fill="white" transform="translate(9.94043 13.44)"/>
</clip-path>
</defs>
</svg>
