<svg width="41" height="44" viewBox="0 0 41 44" fill="none" xmlns="http://www.w3.org/2000/svg">
<g clip-path="url(#clip0)">
<path d="M12.5 24C19.1274 24 24.5 18.6274 24.5 12C24.5 5.37258 19.1274 0 12.5 0C5.87258 0 0.5 5.37258 0.5 12C0.5 18.6274 5.87258 24 12.5 24Z" fill="#F3BA2F"/>
<path d="M9.587 10.803L12.5 7.89L15.4145 10.8045L17.1095 9.1095L12.5 4.5L7.892 9.108L9.587 10.803ZM5 12L6.695 10.305L8.39 12L6.695 13.695L5 12ZM9.587 13.197L12.5 16.11L15.4145 13.1955L17.1095 14.8898L12.5 19.5L7.892 14.892L7.88975 14.8898L9.587 13.197ZM16.61 12L18.305 10.305L20 12L18.305 13.695L16.61 12ZM14.219 11.9985H14.2205V12L12.5 13.7205L10.7817 12.003L10.7787 12L10.7817 11.9977L11.0825 11.6962L11.2288 11.55L12.5 10.2795L14.2197 11.9992L14.219 11.9985Z" fill="white"/>
</g>
<g clip-path="url(#clip1)">
<path d="M24.5 44C33.3366 44 40.5 36.8366 40.5 28C40.5 19.1634 33.3366 12 24.5 12C15.6634 12 8.5 19.1634 8.5 28C8.5 36.8366 15.6634 44 24.5 44Z" fill="url(#paint0_linear)"/>
<path fill-rule="evenodd" cilp-rule="evenodd" d="M14.1072 29.7578C14.1045 29.8176 14.1031 29.8775 14.1031 29.9377C14.1031 30.1651 14.1229 30.3897 14.1615 30.6109H14.1031V30.9591C14.1031 31.129 14.1141 31.2974 14.1359 31.464C14.5595 34.7143 19.0379 37.2718 24.5 37.2718C29.9621 37.2718 34.4405 34.7143 34.8641 31.464C34.8859 31.2974 34.8969 31.129 34.8969 30.9591V30.6109H34.8385C34.8771 30.3897 34.8969 30.1651 34.8969 29.9377C34.8969 29.8775 34.8955 29.8176 34.8928 29.7578C34.7359 26.3546 30.143 23.625 24.5 23.625C18.857 23.625 14.2641 26.3546 14.1072 29.7578ZM13.2533 29.7578C13.3307 27.6814 14.7417 25.9371 16.7055 24.7447C18.7413 23.5087 21.4992 22.7719 24.5 22.7719C27.5008 22.7719 30.2587 23.5087 32.2945 24.7447C34.2583 25.9371 35.6693 27.6814 35.7467 29.7578H35.75V30.9591C35.75 33.1147 34.3148 34.9254 32.2945 36.152C30.2587 37.3881 27.5008 38.1249 24.5 38.1249C21.4992 38.1249 18.7413 37.3881 16.7055 36.152C14.6852 34.9254 13.25 33.1147 13.25 30.9591V29.7578H13.2533Z" fill="#606063"/>
<path d="M34.8974 30.9592C34.8974 34.4456 30.2425 37.2718 24.5004 37.2718C18.7584 37.2718 14.1035 34.4456 14.1035 30.9592V29.9598H34.8974V30.9592Z" fill="#BEBEBE"/>
<path d="M34.8974 29.9378C34.8974 33.4242 30.2425 36.2505 24.5004 36.2505C18.7584 36.2505 14.1035 33.4242 14.1035 29.9378C14.1035 26.4514 18.7584 23.6251 24.5004 23.6251C30.2425 23.6251 34.8974 26.4514 34.8974 29.9378Z" fill="#FAF9FA"/>
<path fill-rule="evenodd" cilp-rule="evenodd" d="M15.7028 28.1546C15.7028 28.1586 15.7028 28.1625 15.7028 28.1665C15.7028 28.4535 15.7444 28.7347 15.8241 29.0077H15.7027V29.3774C15.7027 29.5406 15.7161 29.7019 15.7424 29.8608C16.1388 32.2611 19.4549 34.1346 23.487 34.1346C27.5191 34.1346 30.8352 32.2611 31.2316 29.8608C31.2579 29.7019 31.2713 29.5406 31.2713 29.3774V29.0077H31.1501C31.2276 28.7421 31.2691 28.4689 31.2713 28.19C31.2714 28.1821 31.2714 28.1743 31.2714 28.1665C31.2714 28.1625 31.2714 28.1586 31.2714 28.1546C31.2609 25.5328 27.7798 23.4093 23.4871 23.4093C19.1944 23.4093 15.7133 25.5328 15.7028 28.1546ZM14.8497 28.1546H14.8496V29.3774C14.8496 31.1007 15.9892 32.5227 17.5378 33.4692C19.1011 34.4246 21.2066 34.9877 23.487 34.9877C25.7674 34.9877 27.8729 34.4246 29.4362 33.4692C30.9849 32.5227 32.1244 31.1007 32.1244 29.3774V28.1931C32.1245 28.1842 32.1245 28.1754 32.1245 28.1665C32.1245 26.4432 30.985 25.0211 29.4363 24.0747C27.873 23.1193 25.7675 22.5562 23.4871 22.5562C21.2067 22.5562 19.1012 23.1193 17.5379 24.0747C15.9928 25.019 14.8549 26.4366 14.8497 28.1546Z" fill="#633001"/>
<path d="M31.2708 29.3772C31.2708 32.0046 27.7856 34.1344 23.4865 34.1344C19.1873 34.1344 15.7021 32.0046 15.7021 29.3772V28.2611H31.2708V29.3772Z" fill="#FEDC90"/>
<path d="M31.2708 28.1663C31.2708 30.7936 27.7856 32.9234 23.4865 32.9234C19.1873 32.9234 15.7021 30.7936 15.7021 28.1663C15.7021 25.5389 19.1873 23.4091 23.4865 23.4091C27.7856 23.4091 31.2708 25.5389 31.2708 28.1663Z" fill="#D1884F"/>
<path fill-rule="evenodd" cilp-rule="evenodd" d="M18.0485 25.5953C18.0485 25.5993 18.0485 25.6032 18.0485 25.6072C18.0485 25.8943 18.0901 26.1754 18.1698 26.4484H18.0484V26.8181C18.0484 26.9813 18.0618 27.1426 18.0881 27.3015C18.4845 29.7018 21.8006 31.5753 25.8327 31.5753C29.8648 31.5753 33.1809 29.7018 33.5773 27.3015C33.6036 27.1426 33.617 26.9813 33.617 26.8181V26.4484H33.4958C33.5733 26.1828 33.6148 25.9096 33.617 25.6307C33.6171 25.6228 33.6171 25.615 33.6171 25.6072C33.6171 25.6032 33.6171 25.5993 33.6171 25.5953C33.6066 22.9735 30.1255 20.85 25.8328 20.85C21.5401 20.85 18.059 22.9735 18.0485 25.5953ZM17.1954 25.5953H17.1953V26.8181C17.1953 28.5414 18.3348 29.9635 19.8835 30.9099C21.4468 31.8653 23.5523 32.4284 25.8327 32.4284C28.1131 32.4284 30.2186 31.8653 31.7819 30.9099C33.3306 29.9635 34.4701 28.5414 34.4701 26.8181V25.6338C34.4702 25.625 34.4702 25.6161 34.4702 25.6072C34.4702 23.8839 33.3307 22.4619 31.782 21.5154C30.2187 20.56 28.1132 19.9969 25.8328 19.9969C23.5524 19.9969 21.4469 20.56 19.8836 21.5154C18.3385 22.4597 17.2006 23.8774 17.1954 25.5953Z" fill="#633001"/>
<path d="M33.6175 26.8182C33.6175 29.4455 30.1323 31.5754 25.8331 31.5754C21.534 31.5754 18.0488 29.4455 18.0488 26.8182V25.7021H33.6175V26.8182Z" fill="#FEDC90"/>
<path d="M33.6175 25.6069C33.6175 28.2342 30.1323 30.3641 25.8331 30.3641C21.534 30.3641 18.0488 28.2342 18.0488 25.6069C18.0488 22.9796 21.534 20.8497 25.8331 20.8497C30.1323 20.8497 33.6175 22.9796 33.6175 25.6069Z" fill="#D1884F"/>
<path fill-rule="evenodd" cilp-rule="evenodd" d="M15.7028 23.0359C15.7028 23.0399 15.7028 23.0438 15.7028 23.0478C15.7028 23.3348 15.7444 23.616 15.8241 23.889H15.7027V24.2587C15.7027 24.4219 15.7161 24.5832 15.7424 24.7421C16.1388 27.1424 19.4549 29.0159 23.487 29.0159C27.5191 29.0159 30.8352 27.1424 31.2316 24.7421C31.2579 24.5832 31.2713 24.4219 31.2713 24.2587V23.889H31.1501C31.2276 23.6234 31.2691 23.3502 31.2713 23.0712C31.2714 23.0634 31.2714 23.0556 31.2714 23.0478C31.2714 23.0438 31.2714 23.0399 31.2714 23.0359C31.2609 20.4141 27.7798 18.2906 23.4871 18.2906C19.1944 18.2906 15.7133 20.4141 15.7028 23.0359ZM14.8497 23.0359H14.8496V24.2587C14.8496 25.982 15.9892 27.404 17.5378 28.3505C19.1011 29.3059 21.2066 29.869 23.487 29.869C25.7674 29.869 27.8729 29.3059 29.4362 28.3505C30.9849 27.404 32.1244 25.982 32.1244 24.2587V23.0744C32.1245 23.0655 32.1245 23.0567 32.1245 23.0478C32.1245 21.3245 30.985 19.9024 29.4363 18.956C27.873 18.0006 25.7675 17.4375 23.4871 17.4375C21.2067 17.4375 19.1012 18.0006 17.5379 18.956C15.9928 19.9003 14.8549 21.3179 14.8497 23.0359Z" fill="#633001"/>
<path d="M31.2708 24.2587C31.2708 26.886 27.7856 29.0159 23.4865 29.0159C19.1873 29.0159 15.7021 26.886 15.7021 24.2587V23.1425H31.2708V24.2587Z" fill="#FEDC90"/>
<path d="M31.2708 23.0481C31.2708 25.6754 27.7856 27.8052 23.4865 27.8052C19.1873 27.8052 15.7021 25.6754 15.7021 23.0481C15.7021 20.4207 19.1873 18.2909 23.4865 18.2909C27.7856 18.2909 31.2708 20.4207 31.2708 23.0481Z" fill="#D1884F"/>
<path fill-rule="evenodd" cilp-rule="evenodd" d="M17.5439 23.3436C17.5439 24.2208 18.1813 25.0064 19.1868 25.5349L18.4902 26.7417L18.4903 26.7417H18.4902V29.7957C18.4902 30.1995 18.8175 30.5269 19.2214 30.5269C19.6252 30.5269 19.9526 30.1995 19.9526 29.7957V27.3669L20.7021 26.0687C21.1814 26.1703 21.6958 26.2255 22.2313 26.2255C24.82 26.2255 26.9186 24.9352 26.9186 23.3436C26.9186 21.752 24.82 20.4617 22.2313 20.4617C19.6425 20.4617 17.5439 21.752 17.5439 23.3436Z" fill="url(#paint1_linear)"/>
<path fill-rule="evenodd" cilp-rule="evenodd" d="M19.1872 25.5353C19.0758 25.4767 18.969 25.415 18.867 25.3504C18.0483 24.8315 17.5443 24.1239 17.5443 23.3439C17.5443 21.7523 19.6429 20.462 22.2316 20.462C24.8204 20.462 26.919 21.7523 26.919 23.3439C26.919 24.9356 24.8204 26.2258 22.2316 26.2258C21.6962 26.2258 21.1817 26.1706 20.7025 26.069L19.953 27.3672V29.796C19.953 30.1999 19.6256 30.5272 19.2217 30.5272C18.8179 30.5272 18.4905 30.1999 18.4905 29.796V26.7421L19.1872 25.5353ZM17.7441 26.7549V29.796C17.7441 30.6121 18.4057 31.2737 19.2217 31.2737C20.0378 31.2737 20.6994 30.6121 20.6994 29.796V27.5673L21.0882 26.8939C21.4574 26.9454 21.8401 26.9723 22.2316 26.9723C23.6413 26.9723 24.9532 26.6225 25.937 26.0176C26.9087 25.4202 27.6654 24.496 27.6654 23.3439C27.6654 22.1919 26.9087 21.2676 25.937 20.6702C24.9532 20.0654 23.6413 19.7156 22.2316 19.7156C20.822 19.7156 19.5101 20.0654 18.5263 20.6702C17.5546 21.2676 16.7979 22.1919 16.7979 23.3439C16.7979 24.355 17.377 25.1876 18.1816 25.7842L17.8492 26.3598C17.8176 26.4129 17.7923 26.4702 17.7744 26.5307C17.7526 26.6044 17.7427 26.6801 17.7441 26.7549Z" fill="#633001"/>
<path d="M19.0078 22.1298C19.0078 22.9543 20.0581 23.6227 21.3538 23.6227C22.6494 23.6227 23.6997 22.9543 23.6997 22.1298C23.6997 21.3052 22.6494 20.6368 21.3538 20.6368C20.0581 20.6368 19.0078 21.3052 19.0078 22.1298Z" fill="#9E7200"/>
<path d="M19.0078 21.4896H23.6997V22.1294H19.0078V21.4896Z" fill="#9E7200"/>
<path d="M19.0078 21.4898C19.0078 22.3144 20.0581 22.9828 21.3538 22.9828C22.6494 22.9828 23.6997 22.3144 23.6997 21.4898C23.6997 20.6653 22.6494 19.9969 21.3538 19.9969C20.0581 19.9969 19.0078 20.6653 19.0078 21.4898Z" fill="#F0B90B"/>
<path d="M20.464 21.3099L21.1252 20.8891C21.265 20.8001 21.4435 20.8001 21.5832 20.8891L22.2445 21.3099C22.3762 21.3937 22.3762 21.5859 22.2445 21.6697L21.5832 22.0905C21.4435 22.1794 21.265 22.1794 21.1252 22.0905L20.464 21.6697C20.3323 21.5859 20.3323 21.3937 20.464 21.3099Z" fill="#9E7200"/>
<path fill-rule="evenodd" cilp-rule="evenodd" d="M19.2946 19.8044C19.8561 19.447 20.5863 19.2504 21.3542 19.2504C22.122 19.2504 22.8522 19.447 23.4138 19.8044C23.9665 20.1561 24.4466 20.7338 24.4466 21.4898V22.1296C24.4466 22.8856 23.9665 23.4633 23.4138 23.815C22.8522 24.1724 22.122 24.369 21.3542 24.369C20.5863 24.369 19.8561 24.1724 19.2946 23.815C18.7419 23.4633 18.2617 22.8856 18.2617 22.1296V21.4898C18.2617 20.7338 18.7419 20.1561 19.2946 19.8044ZM21.3542 19.9969C20.0585 19.9969 19.0082 20.6653 19.0082 21.4898V22.1296C19.0082 22.9541 20.0585 23.6226 21.3542 23.6226C22.6498 23.6226 23.7001 22.9541 23.7001 22.1296V21.4898C23.7001 20.6653 22.6498 19.9969 21.3542 19.9969Z" fill="#633001"/>
</g>
<defs>
<linearGradient id="paint0_linear" x1="24.5" y1="12" x2="24.5" y2="44" gradientUnits="userSpaceOnUse">
<stop stop-color="#54DADE"/>
<stop offset="0.762" stop-color="#24C7D6"/>
</linearGradient>
<linearGradient id="paint1_linear" x1="22.282" y1="20.5582" x2="22.282" y2="30.4512" gradientUnits="userSpaceOnUse">
<stop stop-color="#9F4A08"/>
<stop offset="0.37" stop-color="#7D3900"/>
<stop offset="1" stop-color="#8D4104"/>
</linearGradient>
<clip-path id="clip0">
<rect width="24" height="24" fill="white" transform="translate(0.5)"/>
</clip-path>
<clip-path id="clip1">
<rect width="32" height="32" fill="white" transform="translate(8.5 12)"/>
</clip-path>
</defs>
</svg>
