<svg width="40" height="40" viewBox="0 0 40 40" fill="none" xmlns="http://www.w3.org/2000/svg">
<circle cx="20" cy="20" r="20" fill="#FCFCFC"/>
<g clip-path="url(#clip0)">
<circle cx="19.9998" cy="20" r="18.2" fill="#FCFCFC"/>
<g clip-path="url(#clip1)">
<path fill-rule="evenodd" cilp-rule="evenodd" d="M28.7697 33.6996C33.4423 30.79 36.5526 25.6874 36.5526 19.8681C36.5526 10.8095 29.0277 3.47095 19.7398 3.47095C14.9669 3.47095 10.6526 5.40593 7.5996 8.51623H21.0298C26.7344 8.51623 31.3784 13.0455 31.3784 18.6068C31.3784 23.2078 28.1964 27.1064 23.8534 28.3104L28.7697 33.6996ZM12.9316 23.7381H21.0585C23.8392 23.7381 26.0895 21.4304 26.1182 18.6068C26.1182 15.7688 23.8535 13.4612 21.0729 13.4612H4.69003C3.87304 15.4392 3.42871 17.6035 3.42871 19.8824C3.42871 29.113 10.753 36.5949 19.7972 36.5949C21.1445 36.5949 22.4632 36.4229 23.7102 36.1076L12.9316 23.7381Z" fill="#5F47EE"/>
</g>
</g>
<defs>
<clip-path id="clip0">
<rect width="36.4" height="36.4" fill="white" transform="translate(1.7998 1.80005)"/>
</clip-path>
<clip-path id="clip1">
<rect width="33.124" height="33.124" fill="white" transform="translate(3.4375 3.43799)"/>
</clip-path>
</defs>
</svg>
