<svg width="41" height="44" viewBox="0 0 41 44" fill="none" xmlns="http://www.w3.org/2000/svg">
<g clip-path="url(#clip0)">
<circle cx="12.5" cy="12" r="12" fill="#0F0F0E"/>
<path d="M12.4777 4.5L14.3304 6.39732L9.66518 11.0625L7.8125 9.20982L12.4777 4.5Z" fill="#F0B90B" stroke="#F0B90B"/>
<path d="M15.2902 7.3125L17.1429 9.20982L9.66518 16.6875L7.8125 14.8348L15.2902 7.3125Z" fill="#F0B90B" stroke="#F0B90B"/>
<path d="M6.85268 10.125L8.70536 12.0223L6.85268 13.875L5 12.0223L6.85268 10.125Z" fill="#F0B90B" stroke="#F0B90B"/>
<path d="M18.1027 10.125L19.9554 12.0223L12.4777 19.5L10.625 17.6473L18.1027 10.125Z" fill="#F0B90B" stroke="#F0B90B"/>
</g>
<g clip-path="url(#clip1)">
<path d="M24.5 44C33.3366 44 40.5 36.8366 40.5 28C40.5 19.1634 33.3366 12 24.5 12C15.6634 12 8.5 19.1634 8.5 28C8.5 36.8366 15.6634 44 24.5 44Z" fill="#F3BA2F"/>
<path d="M20.616 26.404L24.5 22.52L28.386 26.406L30.646 24.146L24.5 18L18.356 24.144L20.616 26.404ZM14.5 28L16.76 25.74L19.02 28L16.76 30.26L14.5 28ZM20.616 29.596L24.5 33.48L28.386 29.594L30.646 31.853L24.5 38L18.356 31.856L18.353 31.853L20.616 29.596ZM29.98 28L32.24 25.74L34.5 28L32.24 30.26L29.98 28ZM26.792 27.998H26.794V28L24.5 30.294L22.209 28.004L22.205 28L22.209 27.997L22.61 27.595L22.805 27.4L24.5 25.706L26.793 27.999L26.792 27.998Z" fill="white"/>
</g>
<defs>
<clip-path id="clip0">
<rect width="24" height="24" fill="white" transform="translate(0.5)"/>
</clip-path>
<clip-path id="clip1">
<rect width="32" height="32" fill="white" transform="translate(8.5 12)"/>
</clip-path>
</defs>
</svg>
