<svg width="375" height="240" viewBox="0 0 375 240" fill="none" xmlns="http://www.w3.org/2000/svg">
<g clip-path="url(#clip0_2716:23734)">
<rect width="375" height="240" fill="url(#paint0_linear_2716:23734)"/>
<g style="mix-blend-mode:overlay" opacity="0.3">
<path fill-rule="evenodd" clip-rule="evenodd" d="M328 266C328 343.13 265.13 406 188 406C110.91 406 48 343.13 48 266C48 188.91 110.87 126 188 126C265.13 126 328 188.87 328 266ZM93.6547 193.264C93.6547 182.08 95.6119 171.895 99.6062 162.588C26.5106 224.979 53.9115 325.236 142.265 356.591C154.847 361.024 167.15 363.221 179.212 363.221C196.907 363.221 219.515 355.712 219.515 334.622C219.515 316.489 189.909 299.581 173.575 290.253C172.459 289.615 171.404 289.013 170.425 288.448L169.895 288.149C130.746 266.052 93.6547 245.116 93.6547 193.264ZM281.227 339.735C281.227 350.919 279.27 361.144 275.275 370.411C348.371 308.02 320.97 207.803 232.616 176.408C220.034 171.974 207.732 169.778 195.629 169.778C177.974 169.778 155.367 177.287 155.367 198.377C155.367 216.51 184.972 233.417 201.306 242.746C202.423 243.384 203.478 243.986 204.456 244.551L204.812 244.751C244.026 266.846 281.227 287.806 281.227 339.735Z" fill="#FCFCFC"/>
</g>
</g>
<defs>
<linearGradient id="paint0_linear_2716:23734" x1="192.877" y1="240" x2="182.693" y2="0.374228" gradientUnits="userSpaceOnUse">
<stop stop-color="#5F47EE"/>
<stop offset="1" stop-color="#1E215C"/>
</linearGradient>
<clip-path id="clip0_2716:23734">
<rect width="375" height="240" fill="white"/>
</clip-path>
</defs>
</svg>
