<svg width="41" height="44" viewBox="0 0 41 44" fill="none" xmlns="http://www.w3.org/2000/svg">
<g clip-path="url(#clip0)">
<path d="M12.5 24C19.1274 24 24.5 18.6274 24.5 12C24.5 5.37258 19.1274 0 12.5 0C5.87258 0 0.5 5.37258 0.5 12C0.5 18.6274 5.87258 24 12.5 24Z" fill="#F3BA2F"/>
<path d="M9.587 10.803L12.5 7.89L15.4145 10.8045L17.1095 9.1095L12.5 4.5L7.892 9.108L9.587 10.803ZM5 12L6.695 10.305L8.39 12L6.695 13.695L5 12ZM9.587 13.197L12.5 16.11L15.4145 13.1955L17.1095 14.8898L12.5 19.5L7.892 14.892L7.88975 14.8898L9.587 13.197ZM16.61 12L18.305 10.305L20 12L18.305 13.695L16.61 12ZM14.219 11.9985H14.2205V12L12.5 13.7205L10.7817 12.003L10.7787 12L10.7817 11.9977L11.0825 11.6962L11.2288 11.55L12.5 10.2795L14.2197 11.9992L14.219 11.9985Z" fill="white"/>
</g>
<g clip-path="url(#clip1)">
<circle cx="24.5" cy="28" r="16" fill="#FCFCFC"/>
<path fill-rule="evenodd" cilp-rule="evenodd" d="M39.0604 28C39.0604 36.0215 32.5219 42.56 24.5004 42.56C16.4831 42.56 9.94043 36.0215 9.94043 28C9.94043 19.9827 16.4789 13.44 24.5004 13.44C32.5219 13.44 39.0604 19.9785 39.0604 28ZM14.6885 20.4355C14.6885 19.2723 14.8921 18.213 15.3075 17.2451C7.70553 23.7338 10.5552 34.1605 19.744 37.4214C21.0525 37.8825 22.332 38.111 23.5865 38.111C25.4268 38.111 27.778 37.3301 27.778 35.1367C27.778 33.2509 24.699 31.4925 23.0002 30.5223C22.8841 30.456 22.7744 30.3934 22.6726 30.3346L22.6175 30.3035C18.546 28.0054 14.6885 25.8281 14.6885 20.4355ZM34.196 35.6685C34.196 36.8316 33.9924 37.8951 33.577 38.8588C41.1789 32.3701 38.3293 21.9476 29.1405 18.6825C27.8319 18.2214 26.5525 17.9929 25.2938 17.9929C23.4577 17.9929 21.1065 18.7739 21.1065 20.9672C21.1065 22.853 24.1855 24.6115 25.8842 25.5816L25.8842 25.5816C26.0004 25.648 26.1101 25.7106 26.2119 25.7693L26.2489 25.7902C30.327 28.088 34.196 30.2679 34.196 35.6685Z" fill="#5F47EE"/>
</g>
<defs>
<clip-path id="clip0">
<rect width="24" height="24" fill="white" transform="translate(0.5)"/>
</clip-path>
<clip-path id="clip1">
<rect width="32" height="32" fill="white" transform="translate(8.5 12)"/>
</clip-path>
</defs>
</svg>
