<svg width="41" height="44" viewBox="0 0 41 44" fill="none" xmlns="http://www.w3.org/2000/svg">
<g clip-path="url(#clip0)">
<circle cx="12.5" cy="12" r="12" fill="#0F0F0E"/>
<path d="M12.4777 4.5L14.3304 6.39732L9.66518 11.0625L7.8125 9.20982L12.4777 4.5Z" fill="#F0B90B" stroke="#F0B90B"/>
<path d="M15.2902 7.3125L17.1429 9.20982L9.66518 16.6875L7.8125 14.8348L15.2902 7.3125Z" fill="#F0B90B" stroke="#F0B90B"/>
<path d="M6.85268 10.125L8.70536 12.0223L6.85268 13.875L5 12.0223L6.85268 10.125Z" fill="#F0B90B" stroke="#F0B90B"/>
<path d="M18.1027 10.125L19.9554 12.0223L12.4777 19.5L10.625 17.6473L18.1027 10.125Z" fill="#F0B90B" stroke="#F0B90B"/>
</g>
<g clip-path="url(#clip1)">
<circle cx="24.5" cy="28" r="16" fill="#FCFCFC"/>
<path fill-rule="evenodd" cilp-rule="evenodd" d="M39.0604 28C39.0604 36.0215 32.5219 42.56 24.5004 42.56C16.4831 42.56 9.94043 36.0215 9.94043 28C9.94043 19.9827 16.4789 13.44 24.5004 13.44C32.5219 13.44 39.0604 19.9785 39.0604 28ZM14.6885 20.4355C14.6885 19.2723 14.8921 18.213 15.3075 17.2451C7.70553 23.7338 10.5552 34.1605 19.744 37.4214C21.0525 37.8825 22.332 38.111 23.5865 38.111C25.4268 38.111 27.778 37.3301 27.778 35.1367C27.778 33.2509 24.699 31.4925 23.0002 30.5223C22.8841 30.456 22.7744 30.3934 22.6726 30.3346L22.6175 30.3035C18.546 28.0054 14.6885 25.8281 14.6885 20.4355ZM34.196 35.6685C34.196 36.8316 33.9924 37.8951 33.577 38.8588C41.1789 32.3701 38.3293 21.9476 29.1405 18.6825C27.8319 18.2214 26.5525 17.9929 25.2938 17.9929C23.4577 17.9929 21.1065 18.7739 21.1065 20.9672C21.1065 22.853 24.1855 24.6115 25.8842 25.5816L25.8842 25.5816C26.0004 25.648 26.1101 25.7106 26.2119 25.7693L26.2489 25.7902C30.327 28.088 34.196 30.2679 34.196 35.6685Z" fill="#5F47EE"/>
</g>
<defs>
<clip-path id="clip0">
<rect width="24" height="24" fill="white" transform="translate(0.5)"/>
</clip-path>
<clip-path id="clip1">
<rect width="32" height="32" fill="white" transform="translate(8.5 12)"/>
</clip-path>
</defs>
</svg>
