<svg width="40" height="40" viewBox="0 0 40 40" fill="none" xmlns="http://www.w3.org/2000/svg">
<circle cx="20" cy="20" r="20" fill="#FCFCFC"/>
<path fill-rule="evenodd" cilp-rule="evenodd" d="M38.1998 20C38.1998 30.0269 30.0267 38.2001 19.9998 38.2001C9.97812 38.2001 1.7998 30.0269 1.7998 20C1.7998 9.97837 9.97293 1.80005 19.9998 1.80005C30.0267 1.80005 38.1998 9.97317 38.1998 20ZM7.73491 10.5444C7.73491 9.09046 7.98934 7.76635 8.5086 6.55648C-0.993822 14.6673 2.56829 27.7007 14.0543 31.7769C15.6899 32.3532 17.2893 32.6388 18.8574 32.6388C21.1577 32.6388 24.0967 31.6626 24.0967 28.9209C24.0967 26.5637 20.248 24.3656 18.1246 23.1529C17.9794 23.07 17.8423 22.9917 17.7151 22.9183L17.6462 22.8794C12.5568 20.0068 7.73491 17.2851 7.73491 10.5444ZM32.1192 29.5856C32.1192 31.0395 31.8648 32.3688 31.3455 33.5735C40.848 25.4627 37.2859 12.4345 25.7999 8.35315C24.1642 7.77677 22.5649 7.49118 20.9915 7.49118C18.6964 7.49118 15.7574 8.46739 15.7574 11.2091C15.7574 13.5663 19.6061 15.7644 21.7296 16.9771C21.8747 17.06 22.0118 17.1383 22.1391 17.2117L22.1854 17.2378C27.2831 20.11 32.1192 22.8349 32.1192 29.5856Z" fill="#5F47EE"/>
</svg>
