<svg width="24" height="24" viewBox="0 0 24 24" fill="none" xmlns="http://www.w3.org/2000/svg">
<path fill-rule="evenodd" cilp-rule="evenodd" d="M9 18C9.67061 18 10.3155 17.89 10.9177 17.687C9.1507 16.4164 8 14.3426 8 12C8 9.65744 9.1507 7.58364 10.9177 6.31299C10.3155 6.11002 9.67061 6 9 6C5.68629 6 3 8.68629 3 12C3 15.3137 5.68629 18 9 18ZM9.08296 11C9.1522 10.5873 9.26357 10.1889 9.4125 9.80931C9.57744 9.92925 9.78046 10 10 10H14C14.2195 10 14.4226 9.92925 14.5875 9.80931C14.7364 10.1889 14.8478 10.5873 14.917 11H9.08296ZM12 6.80269C12.5525 7.12228 13.0492 7.52742 13.4722 8H10.5278C10.9508 7.52742 11.4475 7.12228 12 6.80269ZM9.08296 13H14.917C14.8478 13.4127 14.7364 13.8111 14.5875 14.1907C14.4226 14.0708 14.2195 14 14 14H10C9.78046 14 9.57744 14.0708 9.4125 14.1907C9.26357 13.8111 9.1522 13.4127 9.08296 13ZM13.4722 16H10.5278C10.9508 16.4726 11.4475 16.8777 12 17.1973C12.5525 16.8777 13.0492 16.4726 13.4722 16ZM16 12C16 14.3426 14.8493 16.4164 13.0823 17.687C13.6845 17.89 14.3294 18 15 18C18.3137 18 21 15.3137 21 12C21 8.68629 18.3137 6 15 6C14.3294 6 13.6845 6.11002 13.0823 6.31299C14.8493 7.58364 16 9.65744 16 12ZM9 19C10.0736 19 11.0907 18.7583 12 18.3264C12.9093 18.7583 13.9264 19 15 19C18.866 19 22 15.866 22 12C22 8.13401 18.866 5 15 5C13.9264 5 12.9093 5.24169 12 5.67363C11.0907 5.24169 10.0736 5 9 5C5.13401 5 2 8.13401 2 12C2 15.866 5.13401 19 9 19Z" fill="#FF6B2A"/>
</svg>
